# xmcd
#
# Track frame offsets:
#	150
#	21018
#	37865
#	62213
#	79805
#	98763
#	124508
#	144780
#	159095
#	174605
#	190975
#	207785
#	225038
#
# Disc length: 3194 seconds
#
# Revision: 1
# Processed by: cddbd v1.5.1PL2 Copyright (c) Steve Scherf et al.
# Submitted via: audiograbber 1.83.01
#
DISCID=910c780d
DTITLE=Pim Jacobs and Louis van Dijk - Love Songs
DYEAR=2000
DGENRE=Easy Listening
TTITLE0=It will come in time
TTITLE1=Hello
TTITLE2=Nothing is gonna change
TTITLE3=Just the two of us
TTITLE4=Send in the clowns
TTITLE5=She's always a woman
TTITLE6=For all we know
TTITLE7=Killing me softly
TTITLE8=We're all alone
TTITLE9=Streets of London
TTITLE10=All by myself
TTITLE11=One day I'll fly away
TTITLE12=You're the sunshine of my life
EXTD=
EXTT0=
EXTT1=
EXTT2=
EXTT3=
EXTT4=
EXTT5=
EXTT6=
EXTT7=
EXTT8=
EXTT9=
EXTT10=
EXTT11=
EXTT12=
PLAYORDER=
